# xmcd CD database file
#
# Track frame offsets:
#	150
#	13905
#	32062
#	47665
#	65697
#	81480
#	108472
#	127582
#	145917
#	161050
#	175915
#	190110
#
# Disc length: 2816 seconds
#
# Revision: 0
# Processed by: cddbd v1.5.1PL0 Copyright (c) Steve Scherf et al.
# Submitted via: CDex 1.51
#
DISCID=a30afe0c
DTITLE=Blue Light Special - Gone With The Wind
DYEAR=1992
DGENRE=Blues
TTITLE0=Fool For You
TTITLE1=Ain't No Future In This Town
TTITLE2=Get Ready (To Fall In Love)
TTITLE3=In My Sights
TTITLE4=The Saddle
TTITLE5=Gone With The Wind
TTITLE6=God Is Calling
TTITLE7=Amazing Grace
TTITLE8=Rockin' In My Baby's Arms
TTITLE9=Wedding Band Blues
TTITLE10=Don't Tell Me (Not To Tell You I Really Love You)
TTITLE11=Tommy's House
EXTD=YEAR: 1992
EXTT0=
EXTT1=
EXTT2=
EXTT3=
EXTT4=
EXTT5=
EXTT6=
EXTT7=
EXTT8=
EXTT9=
EXTT10=
EXTT11=
PLAYORDER=
